<svg viewBox="0 0 75 58" xmlns="http://www.w3.org/2000/svg" xmlns:xlink="http://www.w3.org/1999/xlink"><style>:root&gt;svg{display:none}:root&gt;svg:target{display:block}</style><svg fill="none" viewBox="0 0 16 7" id="css--burger" xmlns="http://www.w3.org/2000/svg"><path d="M1 0a1 1 0 000 2h14a1 1 0 100-2H1zm0 5a1 1 0 000 2h8a1 1 0 000-2H1z" fill="#333"/></svg><svg fill="none" viewBox="0 0 39 26" id="css--cloud" xmlns="http://www.w3.org/2000/svg"><path fill-rule="evenodd" clip-rule="evenodd" d="M22.89 8.031v.019a15.212 15.212 0 00-2.575 8.442c0 2.99.893 5.917 2.576 8.443l.016.024a.67.67 0 01.093.362.66.66 0 01-.203.474.733.733 0 01-.493.205H10.003c-2.653 0-5.197-1-7.073-2.782C1.054 21.436 0 19.02 0 16.5c0-2.52 1.054-4.936 2.93-6.718C4.806 8.001 7.35 7 10.003 7h12.29a.733.733 0 01.498.202.661.661 0 01.206.477.66.66 0 01-.106.352z" fill="#FF7188"/><path fill-rule="evenodd" clip-rule="evenodd" d="M38.66 1.27a17.262 17.262 0 00-6.42 6.436 17.702 17.702 0 00-2.324 8.87 17.94 17.94 0 002.088 8.438.686.686 0 01-.098.778.646.646 0 01-.442.208H22.36a12.64 12.64 0 01-8.763-3.946A13.143 13.143 0 0110 13c0-3.38 1.29-6.628 3.598-9.054A12.64 12.64 0 0122.36 0h15.995a.641.641 0 01.459.2.667.667 0 01.185.474.685.685 0 01-.34.596z" fill="#3AE7BC"/><path fill-rule="evenodd" clip-rule="evenodd" d="M22.412 26h.892a.733.733 0 00.493-.205.66.66 0 00.203-.474.658.658 0 00-.093-.362l-.016-.024a15.211 15.211 0 01-2.576-8.442c0-2.99.893-5.917 2.576-8.443v-.019a.66.66 0 00.106-.352.661.661 0 00-.206-.477.733.733 0 00-.499-.202H11.444A13.168 13.168 0 0010 13c0 3.38 1.296 6.628 3.613 9.054A12.716 12.716 0 0022.412 26z" fill="#2E57DB"/></svg><svg fill="none" viewBox="0 0 40 40" id="css--crm" xmlns="http://www.w3.org/2000/svg"><path fill-rule="evenodd" clip-rule="evenodd" d="M11.5 24a6.5 6.5 0 100-13 6.5 6.5 0 000 13zM8 27a8 8 0 00-8 8v2a3 3 0 003 3h18a3 3 0 003-3v-2a8 8 0 00-8-8H8z" fill="#FF7188"/><path d="M14 38v-7.708a20 20 0 00-8.375-16.274l-3.531-2.522A5 5 0 010 7.426V2a2 2 0 012-2h36a2 2 0 012 2v5.538a5 5 0 01-1.951 3.963l-3.243 2.495A20 20 0 0027 29.848V38a2 2 0 01-2 2h-9a2 2 0 01-2-2z" fill="#3AE7BC"/><path fill-rule="evenodd" clip-rule="evenodd" d="M14 30.292V38a2 2 0 002 2h4a3 3 0 003-3v-2a8 8 0 00-8-8h-1.273c.18 1.08.273 2.18.273 3.292zm-1.069-6.45a6.5 6.5 0 10-7.04-9.63 19.999 19.999 0 017.04 9.63z" fill="#2E57DB"/></svg><svg viewBox="0 0 15 15" id="css--facebook" xmlns="http://www.w3.org/2000/svg"><path fill-rule="evenodd" clip-rule="evenodd" d="M12.004 15H9.016V9.986h2.374l.31-2.007H9.016V5.47a.562.562 0 01.671-.487h1.305L11.304 3c-.8-.054-1.602-.048-2.4.018a2.251 2.251 0 00-1.427.784A2.457 2.457 0 007 5.402v2.592l-2-.015v2.007l2 .007V15H3a3 3 0 01-3-3V3a3 3 0 013-3h9a3 3 0 013 3v9a3 3 0 01-2.996 3z"/></svg><svg fill="none" viewBox="0 0 40 40" id="css--finance" xmlns="http://www.w3.org/2000/svg"><g clip-path="url(#eclip0)" fill-rule="evenodd" clip-rule="evenodd"><path d="M9.172 9.172a4 4 0 015.656 0l8 8a4 4 0 11-5.656 5.656L16 21.657V36a4 4 0 01-8 0V21.657l-1.172 1.171a4 4 0 01-5.656-5.656l8-8z" fill="#FF7188"/><path d="M40 9a9 9 0 11-18 0 9 9 0 0118 0zm-1.057 31c.57 0 1.057-.43 1.057-1a9 9 0 10-18 0c0 .57.487 1 1.057 1h15.886zM17 33a9 9 0 100-18 9 9 0 000 18z" fill="#3AE7BC"/><path d="M8 24a9 9 0 008 8.945V21.657l1.172 1.171a4 4 0 105.656-5.656l-.173-.174A9 9 0 008 24z" fill="#2E57DB"/></g><defs><clipPath id="eclip0"><path fill="#fff" d="M0 0h40v40H0z"/></clipPath></defs></svg><svg fill="none" viewBox="0 0 40 40" id="css--hr" xmlns="http://www.w3.org/2000/svg"><g clip-path="url(#fclip0)" fill-rule="evenodd" clip-rule="evenodd"><path d="M10.369 20a5.5 5.5 0 100-11 5.5 5.5 0 000 11zm-10.5 11a8 8 0 018-8h5a8 8 0 018 8v6a3 3 0 01-3 3h-15a3 3 0 01-3-3v-6z" fill="#FF7188"/><path d="M25.869 16a8 8 0 100-16 8 8 0 000 16zm-15 15c0-6.627 5.373-12 12-12h5c6.627 0 12 5.373 12 12v6a3 3 0 01-3 3h-23a3 3 0 01-3-3v-6z" fill="#3AE7BC"/><path d="M13.87 23.062A11.955 11.955 0 0010.868 31v9h7.035a3 3 0 002.965-3v-6a8.002 8.002 0 00-7-7.938z" fill="#2E57DB"/></g><defs><clipPath id="fclip0"><path fill="#fff" d="M0 0h39.869v40H0z"/></clipPath></defs></svg><svg fill="none" viewBox="0 0 40 40" id="css--idea" xmlns="http://www.w3.org/2000/svg"><g clip-path="url(#gclip0)"><path d="M30.225 31.936c.491-2.323 2.053-4.234 3.889-5.74C37.464 23.449 40 19.45 40 15c0-8.284-6.716-15-15-15-8.284 0-15 6.716-15 15 0 4.45 2.536 8.449 5.886 11.196 1.836 1.506 3.398 3.417 3.89 5.74L20 33l.367 5.142A2 2 0 0022.362 40h4.903a2 2 0 001.98-1.717L30 33l.225-1.064z" fill="#3AE7BC"/><path d="M15.608 34.134c.245-1.962 1.495-3.614 3.035-4.855C21.12 27.284 23 24.483 23 21.25 23 15.037 17.851 10 11.5 10S0 15.037 0 21.25c0 3.233 1.88 6.034 4.357 8.03 1.54 1.24 2.79 2.892 3.035 4.854L7.5 35l.32 3.199A2 2 0 009.81 40h3.38a2 2 0 001.99-1.801L15.5 35l.108-.866z" fill="#FF7188"/><path fill-rule="evenodd" clip-rule="evenodd" d="M18.678 29.273c.112-.106.227-.209.344-.31C21.309 26.994 23 24.317 23 21.25 23 15.037 17.851 10 11.5 10c-.22 0-.437.006-.653.018A14.978 14.978 0 0010 15c0 4.45 2.536 8.449 5.886 11.196 1.08.885 2.064 1.91 2.792 3.077z" fill="#2E57DB"/></g><defs><clipPath id="gclip0"><path fill="#fff" d="M0 0h40v40H0z"/></clipPath></defs></svg><svg viewBox="0 0 15 15" id="css--instagram" xmlns="http://www.w3.org/2000/svg"><path fill-rule="evenodd" clip-rule="evenodd" d="M4 0h7a4 4 0 014 4v7a4 4 0 01-4 4H4a4 4 0 01-4-4V4a4 4 0 014-4zm0 2h7a2 2 0 012 2v7a2 2 0 01-2 2H4a2 2 0 01-2-2V4a2 2 0 012-2zm3.5 2a3.5 3.5 0 110 7 3.5 3.5 0 010-7zm0 2a1.5 1.5 0 110 3 1.5 1.5 0 010-3z"/></svg><svg fill="none" viewBox="0 0 40 40" id="css--knowledge" xmlns="http://www.w3.org/2000/svg"><g clip-path="url(#iclip0)"><path d="M22 13a6 6 0 00-6-6H3a3 3 0 00-3 3v19a3 3 0 003 3h15.82c.776 0 1.541.18 2.236.528L22 33V13z" fill="#FF7188"/><path d="M12 6a6 6 0 016-6h19a3 3 0 013 3v32a3 3 0 01-3 3H17.667a5 5 0 00-3 1l-1.067.8A1 1 0 0112 39V6z" fill="#3AE7BC"/><path fill-rule="evenodd" clip-rule="evenodd" d="M12 32V7h8a6 6 0 016 6v19.005a1 1 0 01-1.502.864l-.334-.193a5 5 0 00-2.51-.676H12z" fill="#2E57DB"/></g><defs><clipPath id="iclip0"><path fill="#fff" d="M0 0h40v40H0z"/></clipPath></defs></svg><svg fill="none" viewBox="0 0 40 40" id="css--kpi" xmlns="http://www.w3.org/2000/svg"><g clip-path="url(#jclip0)"><path d="M13 18.148V37a3 3 0 003 3h21a3 3 0 003-3V2.171C40 .343 37.75-.527 36.52.826L28.83 9.28a3 3 0 01-4.238.201L23.22 8.234a3 3 0 00-4.43.436l-4.81 6.505a5 5 0 00-.98 2.973z" fill="#3AE7BC"/><path d="M0 31.124V37a3 3 0 003 3h25a3 3 0 003-3V17.102c0-1.82-2.231-2.694-3.467-1.36l-8.387 9.054a3 3 0 01-4.3.105l-3.624-3.548a3 3 0 00-4.392.21L.942 28.546A4 4 0 000 31.124z" fill="#FF7188"/><path fill-rule="evenodd" clip-rule="evenodd" d="M28.084 40A3 3 0 0031 37V17.102c0-1.819-2.231-2.693-3.467-1.359l-8.387 9.054a3 3 0 01-4.3.105L13 23.094V37a3 3 0 003 3h12.084z" fill="#2E57DB"/></g><defs><clipPath id="jclip0"><path fill="#fff" d="M0 0h40v40H0z"/></clipPath></defs></svg><svg fill="none" viewBox="0 0 7 12" id="css--left" xmlns="http://www.w3.org/2000/svg"><path d="M6 1L1 6l5 5" stroke="#333" stroke-width="2" stroke-linecap="round" stroke-linejoin="round"/></svg><svg fill="none" viewBox="0 0 18 10" id="css--link-left" xmlns="http://www.w3.org/2000/svg"><path d="M5 1L1 5m0 0l4 4M1 5h16"/></svg><svg fill="none" viewBox="0 0 18 10" id="css--link-right" xmlns="http://www.w3.org/2000/svg"><path d="M13 1l4 4m0 0l-4 4m4-4H1"/></svg><svg fill="none" viewBox="0 0 75 50" id="css--mark" xmlns="http://www.w3.org/2000/svg"><path opacity=".15" fill-rule="evenodd" clip-rule="evenodd" d="M43.791 15.009v.037c-3.219 4.918-4.928 10.619-4.928 16.44 0 5.82 1.71 11.52 4.928 16.44l.03.047a1.3 1.3 0 01.178.706c0 .344-.139.675-.388.922a1.39 1.39 0 01-.943.399H19.136c-5.075 0-9.942-1.95-13.531-5.419C2.016 41.112 0 36.406 0 31.5c0-4.907 2.016-9.612 5.605-13.081C9.193 14.949 14.06 13 19.136 13h23.51c.36.005.702.146.954.393.252.248.394.581.394.928-.002.243-.072.48-.203.688z" fill="#8B94AD"/><path opacity=".15" fill-rule="evenodd" clip-rule="evenodd" d="M74.344 2.443A33.265 33.265 0 0061.947 14.82a33.935 33.935 0 00-4.49 17.057 34.386 34.386 0 004.035 16.228c.097.187.149.395.15.606.004.33-.119.65-.342.89-.222.24-.528.384-.853.4H42.869c-6.397-.2-12.466-2.922-16.922-7.588C21.492 37.745 19 31.5 19 25s2.492-12.745 6.947-17.412C30.403 2.922 36.472.2 42.87 0h30.887a1.244 1.244 0 01.886.386 1.28 1.28 0 01.358.91c.002.233-.057.463-.173.665a1.288 1.288 0 01-.483.482z" fill="#8B94AD"/></svg><svg fill="none" viewBox="0 0 51 58" id="css--play" xmlns="http://www.w3.org/2000/svg"><path d="M47.228 23.83L9.046 1.33C5.046-1.025 0 1.858 0 6.5v45c0 4.643 5.046 7.526 9.046 5.17l38.182-22.5c3.938-2.322 3.938-8.018 0-10.34z" fill="#BFC6DB"/></svg><svg fill="none" viewBox="0 0 40 40" id="css--project" xmlns="http://www.w3.org/2000/svg"><path d="M29 20.5C29 28.508 22.508 35 14.5 35S0 28.508 0 20.5 6.492 6 14.5 6 29 12.492 29 20.5zm-21 0a6.5 6.5 0 1013 0 6.5 6.5 0 00-13 0z" fill="#FF7188"/><path d="M12 8a8 8 0 018-8h18.967c1.008 0 1.383 1.323.524 1.852l-1.587.977A4 4 0 0036 6.235V32a8 8 0 01-8 8H11a1 1 0 01-.8-1.6l1-1.333a4 4 0 00.8-2.4V8z" fill="#3AE7BC"/><path fill-rule="evenodd" clip-rule="evenodd" d="M12.208 6.18A8.024 8.024 0 0012 8v6.466a6.53 6.53 0 110 12.068v7.543a4 4 0 01-.061.698c.831.148 1.687.225 2.561.225C22.508 35 29 28.508 29 20.5S22.508 6 14.5 6c-.78 0-1.546.062-2.292.18z" fill="#2E57DB"/></svg><svg fill="none" viewBox="0 0 7 12" id="css--right" xmlns="http://www.w3.org/2000/svg"><path d="M1 1l5 5-5 5" stroke="#F5F7FD" stroke-width="2" stroke-linecap="round" stroke-linejoin="round"/><path d="M1 1l5 5-5 5"/></svg><svg fill="none" viewBox="0 0 40 40" id="css--service" xmlns="http://www.w3.org/2000/svg"><path fill-rule="evenodd" clip-rule="evenodd" d="M22 36c9.941 0 18-8.059 18-18S31.941 0 22 0 4 8.059 4 18s8.059 18 18 18zm0-10a8 8 0 100-16 8 8 0 000 16z" fill="#3AE7BC"/><path d="M0 22a3 3 0 013-3h18a3 3 0 013 3v11a3 3 0 01-3 3h-8.36a3 3 0 00-1.992.758l-2.851 2.534A2.803 2.803 0 015.934 40 .934.934 0 015 39.066V38a2 2 0 00-2-2 3 3 0 01-3-3V22z" fill="#FF7188"/><path fill-rule="evenodd" clip-rule="evenodd" d="M21.29 35.986A3 3 0 0024 33v-7.252A8.001 8.001 0 0114.062 19H4.027c.506 9.241 7.983 16.626 17.262 16.986z" fill="#2E57DB"/></svg><svg fill="none" viewBox="0 0 40 40" id="css--task" xmlns="http://www.w3.org/2000/svg"><path fill-rule="evenodd" clip-rule="evenodd" d="M33.535 8.464a5 5 0 010 7.072l-17 17a5 5 0 01-7.07 0l-8-8a5 5 0 117.07-7.072L13 21.93 26.465 8.464a5 5 0 017.07 0z" fill="#FF7188"/><path fill-rule="evenodd" clip-rule="evenodd" d="M13 0a3 3 0 00-3 3v12a3 3 0 003 3h24a3 3 0 003-3V3a3 3 0 00-3-3H13zm0 22a3 3 0 00-3 3v12a3 3 0 003 3h24a3 3 0 003-3V25a3 3 0 00-3-3H13z" fill="#3AE7BC"/><path fill-rule="evenodd" clip-rule="evenodd" d="M31.071 18l2.464-2.464a5 5 0 10-7.07-7.072L16.928 18H31.07zm-4 4L16.535 32.535a5.001 5.001 0 01-6.535.466V25a3 3 0 013-3h14.071z" fill="#2E57DB"/></svg><svg viewBox="0 0 15 13" id="css--tg" xmlns="http://www.w3.org/2000/svg"><path fill-rule="evenodd" clip-rule="evenodd" d="M12.004 11.107a1 1 0 01-1.78.528c-1.09-.866-2.79-2.114-2.79-2.114s-1.23 2.167-1.45 2.39a.683.683 0 01-1-.133.857.857 0 00-.04-.1l.69-3.453 4.92-4.833-6.71 3.83S.814 6.314.364 6.137a.7.7 0 01.07-1.262c.64-.326 11.93-4.638 12.31-4.749.38-.11 1.38-.4 1.27.573-.11.973-1.9 9.872-2.01 10.407z"/></svg><svg viewBox="0 0 14 12" id="css--twitter" xmlns="http://www.w3.org/2000/svg"><path fill-rule="evenodd" clip-rule="evenodd" d="M6.263 3.419S6.5.071 8.833.042c1.9-.025 2.265.838 2.265.838a4.285 4.285 0 001.557-.862 2.551 2.551 0 01-.637 1.508c.361-.002.71-.13.99-.359a1.942 1.942 0 01-1.038 1.244 9.716 9.716 0 01-1.6 5.917c-1.7 2.469-4.792 2.653-6.488 2.674A9.047 9.047 0 01.015 9.875s2.573.032 3.725-.81a18.236 18.236 0 01-2.55-2.107c.31.026.623-.006.923-.093a13.754 13.754 0 01-2.1-2.9c.318.063.644.08.968.05 0 0-1.5-2.435-.79-4.015 0 .004 2.535 3.206 6.072 3.419z"/></svg><svg viewBox="0 0 16 10" id="css--vk" xmlns="http://www.w3.org/2000/svg"><path fill-rule="evenodd" clip-rule="evenodd" d="M8.99.78v3.257a.34.34 0 00.426.35c.3-.02.978-2.8 1.279-3.4.16-.341.416-.629.738-.826A.609.609 0 0111.8.005h2.878a.464.464 0 01.3.729c-.225.5-2.155 3.61-2.255 3.735a1.31 1.31 0 00-.237.55 1.2 1.2 0 00.312.627c.2.226 1.816 2.005 1.967 2.154a1.2 1.2 0 01.275.577.763.763 0 01-.8.613h-2.342a2.8 2.8 0 01-.952-.565c-.225-.2-1.059-1.152-1.184-1.277a.4.4 0 00-.351-.145c-.15 0-.435.016-.422.585a2 2 0 01-.238 1.14.993.993 0 01-.737.274A5 5 0 015.1 8.276C3.526 7.298 1.734 4.686.9 3.02A6.513 6.513 0 010 .307c.05-.176.05-.3.226-.3h2.6a.845.845 0 01.351.326c.075.1.647 1.812.822 2.113.175.301 1.038 1.95 1.506 1.95a.6.6 0 00.474-.7v-2.18a1.94 1.94 0 00-.978-1 1.261 1.261 0 01.927-.5c.6-.025 2.105-.024 2.43.025a.782.782 0 01.632.74z"/></svg><svg viewBox="0 0 16 13" id="css--yt" xmlns="http://www.w3.org/2000/svg"><path fill-rule="evenodd" clip-rule="evenodd" d="M11.003 13h-7a4.177 4.177 0 01-4-4.334V4.333a4.178 4.178 0 014-4.333h7a4.178 4.178 0 014 4.334v4.333a4.177 4.177 0 01-4 4.333zm2-8.745a2.133 2.133 0 00-2-2.245h-7a2.133 2.133 0 00-2 2.245v4.489a2.133 2.133 0 002 2.245h7a2.133 2.133 0 002-2.245V4.255zm-7-.268l4 2.513-4 2.511V3.987z"/></svg></svg>